{"title":"How I Met Your Mother S09E01-02 (2episodes) 480p WEB-DL x264 AAC","uid":8956831,"size":186966198,"categoryP":"video","categoryS":"tv_shows","magnet":"?xt=urn:btih:84f9c72a52b9f8258506f5809cf3719c7fc0dd42&amp;dn=How+I+Met+Your+Mother+S09E01-02+%282episodes%29+480p+WEB-DL+x264+AAC&amp;tr=udp%3A%2F%2Ftracker.openbittorrent.com%3A80&amp;tr=udp%3A%2F%2Fopen.demonii.com%3A1337&amp;tr=udp%3A%2F%2Ftracker.coppersurfer.tk%3A6969&amp;tr=udp%3A%2F%2Fexodus.desync.com%3A6969","seeders":5,"leechers":0,"uploader":"canc232","files":1,"time":1380016468,"description":"How I Met Your Mother S09E01-02 (2episodes) 480p WEB-DL x264 AAC E-Subs [GWC].mp4\n\n\nSCREENS:\n &lt;a href=&quot;\nhttp://s10.postimg.org/7hkbzeapl/RAGWT_1.jpg&quot; rel=&quot;nofollow&quot; target=&quot;_NEW&quot;&gt;\nhttp://s10.postimg.org/7hkbzeapl/RAGWT_1.jpg&lt;/a&gt;\n &lt;a href=&quot;\nhttp://s10.postimg.org/eeeibx709/RAGWT_2.jpg&quot; rel=&quot;nofollow&quot; target=&quot;_NEW&quot;&gt;\nhttp://s10.postimg.org/eeeibx709/RAGWT_2.jpg&lt;/a&gt;\n &lt;a href=&quot;\nhttp://s10.postimg.org/3z8c309tl/RAGWT_3.jpg&quot; rel=&quot;nofollow&quot; target=&quot;_NEW&quot;&gt;\nhttp://s10.postimg.org/3z8c309tl/RAGWT_3.jpg&lt;/a&gt;\n\n\nMEDIA INFO :\n\nGeneral \nFormat : MPEG-4 \nFormat profile : Base Media \nCodec ID : isom \nFile size : 178 MiB \nDuration : 42mn 31s \nOverall bit rate mode : Variable \nOverall bit rate : 586 Kbps \n\nVideo \nID : 1 \nFormat : AVC \nFormat profile : &lt;a class=&quot;__cf_email__&quot; href=&quot;/cdn-cgi/l/email-protection&quot; data-cfemail=&quot;5c14353b341c106f726c&quot;&gt;[email&amp;#160;protected]&lt;/a&gt;&lt;script cf-hash='f9e31' type=&quot;text/javascript&quot;&gt;\n/* &lt;![CDATA[ */!function(){try{var t=&quot;currentScript&quot;in document?document.currentScript:function(){for(var t=document.getElementsByTagName(&quot;script&quot;),e=t.length;e--;)if(t[e].getAttribute(&quot;cf-hash&quot;))return t[e]}();if(t&amp;&amp;t.previousSibling){var e,r,n,i,c=t.previousSibling,a=c.getAttribute(&quot;data-cfemail&quot;);if(a){for(e=&quot;&quot;,r=parseInt(a.substr(0,2),16),n=2;a.length-n;n+=2)i=parseInt(a.substr(n,2),16)^r,e+=String.fromCharCode(i);e=document.createTextNode(e),c.parentNode.replaceChild(e,c)}}}catch(u){}}();/* ]]&gt; */&lt;/script&gt; \nFormat settings, CABAC : Yes \nFormat settings, ReFrames : 5 frames \nDuration : 42mn 31s \nBit rate : 524 Kbps \nMaximum bit rate : 1 235 Kbps \nWidth : 720 pixels \nHeight : 404 pixels \nDisplay aspect ratio : 16:9 \nFrame rate mode : Variable \nFrame rate : 23.976 fps \nTitle : How I Met Your Mother S09E01-02 (2episodes) 480p HDTV x264 AAC [GWC] \nWriting library : x264 core\nLanguage : English \n\nAudio \nID : 2 \nFormat : AAC \nFormat profile : HE-AAC / LC \nCodec ID : 40 \nDuration : 42mn 31s \nChannel(s) : 2 channels \nChannel positions : Front: L R \nSampling rate : 48.0 KHz / 24.0 KHz \nCompression mode : Lossy \nStream size : 16.4 MiB \nLanguage : English \n\nText \nID : 3 \nFormat : Timed Text \nMuxing mode : sbtl \nCodec ID : tx3g \nDuration : 42mn 9s \nBit rate mode : Variable \nBit rate : 111 bps \nStream size : 34.3 KiB (0%) \nTitle : [GWC] \nLanguage : English","torrent":{"xt":"urn:btih:84f9c72a52b9f8258506f5809cf3719c7fc0dd42","amp;dn":"How+I+Met+Your+Mother+S09E01-02+%282episodes%29+480p+WEB-DL+x264+AAC","amp;tr":["udp%3A%2F%2Ftracker.openbittorrent.com%3A80","udp%3A%2F%2Fopen.demonii.com%3A1337","udp%3A%2F%2Ftracker.coppersurfer.tk%3A6969","udp%3A%2F%2Fexodus.desync.com%3A6969"],"infoHash":"84f9c72a52b9f8258506f5809cf3719c7fc0dd42","infoHashBuffer":{"type":"Buffer","data":[132,249,199,42,82,185,248,37,133,6,245,128,156,243,113,156,127,192,221,66]},"announce":[],"urlList":[]}}